<?xml version="1.0" encoding="iso-8859-1"?>
<!-- Generator: Adobe Illustrator 19.0.0, SVG Export Plug-In . SVG Version: 6.00 Build 0)  -->
<svg version="1.1" id="Layer_1" xmlns="http://www.w3.org/2000/svg" xmlns:xlink="http://www.w3.org/1999/xlink" x="0px" y="0px"
	 viewBox="0 0 512 512" style="enable-background:new 0 0 512 512;" xml:space="preserve">
<path style="fill:#FFEDBE;" d="M354.709,40.96C329.42,15.671,294.499,0,256,0s-73.42,15.671-98.708,40.96
	c-25.303,25.289-40.96,60.195-40.96,98.709v88.044v88.03v88.044v65.782c0,23.436,18.995,42.431,42.431,42.431
	s42.431-18.995,42.431-42.431v-65.782v-88.044v-88.03v-88.044c0-15.12,6.152-28.811,16.067-38.739
	C227.189,91,240.895,84.862,256,84.862c15.105,0,28.811,6.138,38.739,16.067c9.915,9.929,16.067,23.62,16.067,38.739v45.613
	c0,23.422,18.995,42.431,42.431,42.431s42.431-19.009,42.431-42.431v-45.613C395.669,101.155,380.012,66.249,354.709,40.96z"/>
<g>
	<path style="fill:#FF5E5B;" d="M201.193,403.787v65.782c0,23.436-18.995,42.431-42.431,42.431s-42.431-18.995-42.431-42.431
		v-65.782H201.193z"/>
	<rect x="116.331" y="227.713" style="fill:#FF5E5B;" width="84.862" height="88.03"/>
</g>
<path style="fill:#FFC72D;" d="M395.669,139.669h-84.862c0-15.12-6.152-28.811-16.067-38.739l59.969-59.969
	C380.012,66.249,395.669,101.155,395.669,139.669z"/>
<path style="fill:#ED3E3C;" d="M395.669,139.669v45.613c0,23.422-18.995,42.431-42.431,42.431s-42.431-19.009-42.431-42.431v-45.613
	H395.669z"/>
<path style="fill:#FF5E5B;" d="M217.261,100.929c-9.915,9.929-16.067,23.62-16.067,38.739h-84.862
	c0-38.513,15.657-73.42,40.96-98.709L217.261,100.929z"/>
<path style="fill:#ED3E3C;" d="M354.709,40.96l-59.969,59.969C284.811,91,271.105,84.862,256,84.862V0
	C294.499,0,329.42,15.671,354.709,40.96z"/>
<g>
</g>
<g>
</g>
<g>
</g>
<g>
</g>
<g>
</g>
<g>
</g>
<g>
</g>
<g>
</g>
<g>
</g>
<g>
</g>
<g>
</g>
<g>
</g>
<g>
</g>
<g>
</g>
<g>
</g>
</svg>
