<?xml version="1.0" ?><!DOCTYPE svg  PUBLIC '-//W3C//DTD SVG 1.1//EN'  'http://www.w3.org/Graphics/SVG/1.1/DTD/svg11.dtd'><svg enable-background="new 0 0 33 47" height="47px" id="Layer_1" version="1.1" viewBox="0 0 33 47" width="33px" xml:space="preserve" xmlns="http://www.w3.org/2000/svg" xmlns:xlink="http://www.w3.org/1999/xlink"><g><path d="M10,19.5c0,3.866,3.884,7.5,7.75,7.5H18v10c0,2.205-1.794,4-4,4h-4c-2.206,0-4-1.795-4-4v-8H0v8   c0,5.514,4.486,10,10,10h4c5.514,0,10-4.486,10-10V27h0.75c3.866,0,6.25-3.634,6.25-7.5V13H10V19.5z" fill="#231F20"/><path d="M28,8V1.5C28,0.672,27.328,0,26.5,0S25,0.672,25,1.5V8h-9V1.5C16,0.672,15.328,0,14.5,0S13,0.672,13,1.5V8   H8v4h25V8H28z" fill="#231F20"/></g></svg>